<svg xmlns="http://www.w3.org/2000/svg" xmlns:xlink="http://www.w3.org/1999/xlink" preserveAspectRatio="xMidYMid" width="16" height="10" viewBox="0 0 16 10">
  <defs>
    <style>
      .cls-1 {
        fill: #5e676a;
        fill-rule: evenodd;
      }
    </style>
  </defs>
  <path d="M8.000,0.000 C4.511,0.000 1.486,2.032 0.000,5.000 C1.486,7.968 4.511,10.000 8.000,10.000 C11.489,10.000 14.514,7.968 16.000,5.000 C14.514,2.032 11.489,0.000 8.000,0.000 ZM11.945,2.652 C12.885,3.251 13.681,4.054 14.279,5.000 C13.681,5.946 12.885,6.749 11.945,7.348 C10.763,8.102 9.399,8.500 8.000,8.500 C6.601,8.500 5.237,8.102 4.055,7.348 C3.115,6.749 2.319,5.946 1.721,5.000 C2.319,4.054 3.115,3.251 4.055,2.652 C4.117,2.613 4.179,2.575 4.241,2.538 C4.085,2.965 4.000,3.425 4.000,3.906 C4.000,6.115 5.791,7.906 8.000,7.906 C10.209,7.906 12.000,6.115 12.000,3.906 C12.000,3.425 11.915,2.965 11.759,2.538 C11.821,2.575 11.883,2.613 11.945,2.652 ZM8.000,3.406 C8.000,4.235 7.328,4.906 6.500,4.906 C5.672,4.906 5.000,4.235 5.000,3.406 C5.000,2.578 5.672,1.906 6.500,1.906 C7.328,1.906 8.000,2.578 8.000,3.406 Z" class="cls-1"/>
</svg>
